<?xml version="1.0" encoding="utf-8" standalone="no"?>

<svg height="6.00px" version="1.1" width="4.00px" xmlns="http://www.w3.org/2000/svg"><path d="M0.85 3.72 C0.85 4.6 1.27 5.13 1.97 5.13 C2.66 5.13 3.09 4.59 3.09 3.72 C3.09 2.85 2.66 2.3 1.97 2.3 C1.27 2.3 0.85 2.84 0.85 3.72M0 3.72 C0 2.4 0.68 1.56 1.73 1.56 C2.3 1.56 2.79 1.83 3.01 2.29 L3.08 2.29 L3.08 0 L3.9 0 L3.9 5.81 L3.11 5.81 L3.11 5.15 L3.04 5.15 C2.8 5.6 2.31 5.87 1.73 5.87 C0.67 5.87 0 5.04 0 3.72" fill="white" stroke="white" stroke-opacity="1" stroke-width="0"/></svg>