<?xml version="1.0" encoding="utf-8" standalone="no"?>

<svg height="16.00px" version="1.1" width="79.00px" xmlns="http://www.w3.org/2000/svg"><path d="M61.1 12.01 L61.1 0.42 L62.83 0.42 L62.83 12.01 L61.1 12.01M76.69 4.59 L78.61 4.59 L73.86 15.53 L72.05 15.53 L73.81 11.62 L70.72 4.59 L72.59 4.59 L74.65 9.62 L74.7 9.62 L76.69 4.59M66.88 10.69 C67.87 10.69 68.8 9.93 68.93 8.86 C68.47 8.64 68.11 8.47 67.35 8.47 C66.5 8.47 65.52 8.82 65.52 9.71 C65.52 10.41 66.31 10.69 66.88 10.69M67.08 4.34 C69.07 4.34 70.6 5.49 70.6 7.55 L70.6 11.99 L68.93 11.99 L68.93 11.1 L68.87 11.1 C68.47 11.71 67.83 12.23 66.67 12.23 C65.15 12.23 63.79 11.23 63.79 9.68 C63.79 7.98 65.47 7.07 67.13 7.07 C67.95 7.07 68.62 7.34 68.93 7.52 L68.93 7.4 C68.92 6.44 68.01 5.91 67.11 5.91 C66.47 5.91 65.86 6.12 65.53 6.76 L64 6.12 C64.53 4.89 65.83 4.34 67.08 4.34M56.39 6.01 C57.68 6.01 58.42 4.92 58.42 4.02 C58.42 3.1 57.68 2.03 56.39 2.03 L53.93 2.03 L53.93 6.01 L56.39 6.01M56.35 0.42 C58.26 0.42 60.15 1.81 60.15 4.02 C60.15 6.23 58.26 7.62 56.35 7.62 L53.93 7.62 L53.93 12.01 L52.2 12.01 L52.2 0.42 L56.35 0.42M33.74 10.7 C34.92 10.7 35.84 9.7 35.84 8.32 C35.84 6.93 34.92 5.92 33.74 5.92 C32.54 5.92 31.54 6.93 31.54 8.32 C31.54 9.7 32.54 10.7 33.74 10.7M35.72 5.24 L35.72 4.6 L37.37 4.6 L37.37 11.68 C37.37 14.6 35.65 15.79 33.62 15.79 C31.71 15.79 30.56 14.51 30.12 13.46 L31.63 12.83 C31.9 13.48 32.56 14.24 33.62 14.24 C34.92 14.24 35.72 13.43 35.72 11.92 L35.72 11.35 L35.66 11.35 C35.28 11.83 34.53 12.25 33.59 12.25 C31.62 12.25 29.81 10.53 29.81 8.32 C29.81 6.1 31.62 4.36 33.59 4.36 C34.53 4.36 35.28 4.78 35.66 5.24 L35.72 5.24M38.56 12.01 L38.56 0.42 L40.3 0.42 L40.3 12.01 L38.56 12.01M42.85 8.19 L46.38 6.72 C46.18 6.23 45.6 5.89 44.91 5.89 C44.03 5.89 42.81 6.66 42.85 8.19M48.23 6.87 L48.41 7.32 L43.13 9.5 C43.54 10.29 44.17 10.7 45.05 10.7 C45.93 10.7 46.54 10.26 46.99 9.61 L48.33 10.5 C47.9 11.14 46.85 12.25 45.05 12.25 C42.81 12.25 41.13 10.52 41.13 8.31 C41.13 5.96 42.82 4.36 44.85 4.36 C46.9 4.36 47.9 5.99 48.23 6.87M6.21 5.57 L11.85 5.57 C11.91 5.87 11.94 6.23 11.94 6.62 C11.94 7.87 11.59 9.43 10.49 10.53 C9.41 11.65 8.04 12.25 6.21 12.25 C2.84 12.25 0 9.5 0 6.13 C0 2.75 2.84 0 6.21 0 C8.08 0 9.41 0.73 10.41 1.69 L9.23 2.87 C8.52 2.2 7.54 1.67 6.21 1.67 C3.75 1.67 1.82 3.66 1.82 6.13 C1.82 8.59 3.75 10.58 6.21 10.58 C7.81 10.58 8.72 9.93 9.31 9.35 C9.78 8.87 10.1 8.19 10.22 7.25 L6.21 7.25 L6.21 5.57M16.49 10.7 C17.68 10.7 18.71 9.71 18.71 8.31 C18.71 6.89 17.68 5.92 16.49 5.92 C15.29 5.92 14.26 6.89 14.26 8.31 C14.26 9.71 15.29 10.7 16.49 10.7M16.49 4.36 C18.67 4.36 20.45 6.02 20.45 8.31 C20.45 10.58 18.67 12.25 16.49 12.25 C14.31 12.25 12.53 10.58 12.53 8.31 C12.53 6.02 14.31 4.36 16.49 4.36M25.12 10.7 C26.32 10.7 27.35 9.71 27.35 8.31 C27.35 6.89 26.32 5.92 25.12 5.92 C23.93 5.92 22.9 6.89 22.9 8.31 C22.9 9.71 23.93 10.7 25.12 10.7M25.12 4.36 C27.31 4.36 29.08 6.02 29.08 8.31 C29.08 10.58 27.31 12.25 25.12 12.25 C22.94 12.25 21.17 10.58 21.17 8.31 C21.17 6.02 22.94 4.36 25.12 4.36" fill="white" stroke="white" stroke-opacity="1" stroke-width="0"/></svg>