<?xml version="1.0" encoding="utf-8" standalone="no"?>

<svg height="6.00px" version="1.1" width="6.00px" xmlns="http://www.w3.org/2000/svg"><path d="M1.35 4.5 C1.76 4.92 2.26 5.13 2.86 5.13 C3.45 5.13 3.96 4.92 4.37 4.5 C4.78 4.09 4.99 3.55 4.99 2.91 C4.99 2.26 4.78 1.73 4.37 1.31 C3.96 0.89 3.45 0.68 2.86 0.68 C2.26 0.68 1.76 0.89 1.35 1.31 C0.94 1.73 0.73 2.26 0.73 2.91 C0.73 3.55 0.94 4.09 1.35 4.5M4.9 4.97 C4.35 5.53 3.67 5.81 2.86 5.81 C2.05 5.81 1.37 5.53 0.82 4.97 C0.27 4.41 0 3.72 0 2.91 C0 2.09 0.27 1.41 0.82 0.84 C1.37 0.28 2.05 0 2.86 0 C3.67 0 4.35 0.28 4.9 0.85 C5.44 1.41 5.72 2.1 5.72 2.91 C5.72 3.72 5.45 4.41 4.9 4.97" fill="white" stroke="white" stroke-opacity="1" stroke-width="0"/></svg>