<?xml version="1.0" encoding="utf-8" standalone="no"?>

<svg height="16.00px" version="1.1" width="17.00px" xmlns="http://www.w3.org/2000/svg"><path d="M13.72 5.87 C13.75 8.93 16.4 9.94 16.43 9.95 C16.41 10.02 16.01 11.41 15.02 12.81 C14.19 14.06 13.32 15.27 11.94 15.29 C10.6 15.32 10.15 14.5 8.61 14.5 C7.06 14.5 6.58 15.27 5.29 15.32 C3.98 15.37 2.97 14 2.11 12.77 C0.4 10.26 -0.94 5.69 0.85 2.59 C1.72 1.07 3.31 0.09 5 0.06 C6.32 0.03 7.54 0.95 8.35 0.95 C9.14 0.95 10.65 -0.15 12.21 0.02 C12.86 0.04 14.71 0.27 15.91 2.02 C15.81 2.08 13.7 3.32 13.72 5.87" fill="white" stroke="white" stroke-opacity="1" stroke-width="0"/></svg>