<?xml version="1.0" encoding="utf-8" standalone="no"?>

<svg height="6.00px" version="1.1" width="6.00px" xmlns="http://www.w3.org/2000/svg"><path d="M0 3 C0 2.15 0.29 1.43 0.87 0.86 C1.45 0.29 2.16 0 2.98 0 C3.39 0 3.79 0.08 4.16 0.24 C4.53 0.4 4.84 0.62 5.07 0.89 L5.12 0.95 L5.06 1.01 L4.5 1.57 L4.44 1.5 C4.08 1.08 3.61 0.87 2.98 0.87 C2.42 0.87 1.94 1.06 1.53 1.46 C1.12 1.86 0.92 2.36 0.92 3 C0.92 3.64 1.12 4.14 1.53 4.54 C1.94 4.93 2.42 5.13 2.98 5.13 C3.58 5.13 4.07 4.93 4.47 4.53 C4.7 4.3 4.85 3.98 4.9 3.57 L5 3.57 L5 3.47 L4.91 3.47 L4.9 3.57 L2.89 3.57 L2.89 2.71 L5.76 2.71 L5.77 2.79 C5.8 2.94 5.81 3.08 5.81 3.22 C5.81 4.02 5.57 4.67 5.09 5.15 L5.03 5.08 L5.09 5.15 C4.55 5.71 3.84 6 2.98 6 C2.16 6 1.45 5.71 0.87 5.14 C0.29 4.56 0 3.84 0 3M1 0.99 C0.46 1.54 0.19 2.2 0.19 3 C0.19 3.8 0.46 4.46 1 5 C1.55 5.54 2.2 5.81 2.98 5.81 C3.8 5.81 4.45 5.55 4.96 5.02 C5.4 4.57 5.62 3.98 5.63 3.22 C5.63 3.12 5.62 3.01 5.6 2.9 L3.08 2.9 L3.08 3.38 L5.1 3.38 L5.1 3.48 C5.05 3.98 4.89 4.38 4.6 4.67 C4.17 5.1 3.62 5.32 2.98 5.31 C2.38 5.31 1.84 5.1 1.4 4.67 C0.95 4.24 0.73 3.68 0.73 3 C0.73 2.32 0.95 1.76 1.4 1.33 C1.84 0.9 2.38 0.68 2.98 0.68 C3.61 0.68 4.13 0.89 4.51 1.3 L4.87 0.94 C4.67 0.73 4.41 0.55 4.09 0.41 C3.74 0.26 3.37 0.19 2.98 0.19 C2.2 0.19 1.55 0.45 1 0.99M4.51 1.3 L4.44 1.37 L4.51 1.44 L4.58 1.38 L4.51 1.3M4.93 0.88 L4.87 0.94 L4.92 1.01 L5 0.95 L4.93 0.88M5.68 2.8 L5.59 2.82 L5.6 2.9 L5.68 2.9 L5.68 2.8" fill="white" stroke="white" stroke-opacity="1" stroke-width="0"/></svg>