<?xml version="1.0" encoding="utf-8" standalone="no"?>

<svg height="6.00px" version="1.1" width="4.00px" xmlns="http://www.w3.org/2000/svg"><path d="M0 0 L3.43 0 L3.43 0.78 L3.43 0.87 L0.9 0.87 L0.9 2.45 L3.18 2.45 L3.18 3.3 L0.9 3.3 L0.9 4.88 L3.43 4.88 L3.43 5.75 L0 5.75 L0 0M3.25 0.19 L0.19 0.19 L0.19 5.56 L3.25 5.56 L3.25 5.07 L0.71 5.07 L0.71 3.12 L3 3.12 L3 2.63 L0.71 2.63 L0.71 0.68 L3.25 0.68 L3.25 0.19M3.34 0.68 L3.25 0.68 L3.25 0.78 L3.34 0.78 L3.34 0.68" fill="white" stroke="white" stroke-opacity="1" stroke-width="0"/></svg>