<?xml version="1.0" encoding="utf-8" standalone="no"?>

<svg height="5.00px" version="1.1" width="4.00px" xmlns="http://www.w3.org/2000/svg"><path d="M2.68 2.72 L2.68 2.37 L1.66 2.43 C1.09 2.47 0.83 2.67 0.83 3.04 C0.83 3.41 1.15 3.63 1.6 3.63 C2.22 3.63 2.68 3.24 2.68 2.72M0 3.08 C0 2.32 0.56 1.89 1.55 1.83 L2.68 1.76 L2.68 1.4 C2.68 0.96 2.39 0.71 1.83 0.71 C1.37 0.71 1.05 0.88 0.96 1.18 L0.16 1.18 C0.25 0.46 0.92 0 1.87 0 C2.91 0 3.5 0.52 3.5 1.4 L3.5 4.26 L2.71 4.26 L2.71 3.67 L2.65 3.67 C2.4 4.09 1.94 4.32 1.39 4.32 C0.59 4.32 0 3.84 0 3.08" fill="white" stroke="white" stroke-opacity="1" stroke-width="0"/></svg>