<?xml version="1.0" encoding="utf-8" standalone="no"?>

<svg height="6.00px" version="1.1" width="5.00px" xmlns="http://www.w3.org/2000/svg"><path d="M0 0 L1.01 0 L3.6 4.13 L3.61 4.42 L3.7 4.42 L3.7 4.4 L3.75 4.37 L3.6 4.13 L3.57 3.35 L3.57 0 L4.48 0 L4.48 5.75 L3.58 5.75 L0.88 1.41 L0.87 1.12 L0.78 1.12 L0.78 1.14 L0.73 1.17 L0.88 1.41 L0.9 2.19 L0.9 5.75 L0.09 5.75 L0 5.75 L0 0M0.19 5.56 L0.09 5.56 L0.09 5.66 L0.19 5.66 L0.19 5.56M0.91 0.19 L0.19 0.19 L0.19 5.56 L0.71 5.56 L0.71 2.19 L0.68 1.03 L0.86 1.03 L3.69 5.56 L4.29 5.56 L4.29 0.19 L3.76 0.19 L3.76 3.35 L3.79 4.51 L3.62 4.51 L0.91 0.19M0.78 1.14 L0.81 1.12 L0.81 1.21 L0.78 1.21 L0.78 1.14M3.67 4.33 L3.7 4.33 L3.7 4.4 L3.67 4.42 L3.67 4.33" fill="white" stroke="white" stroke-opacity="1" stroke-width="0"/></svg>