<?xml version="1.0" encoding="utf-8" standalone="no"?>

<svg height="6.00px" version="1.1" width="6.00px" xmlns="http://www.w3.org/2000/svg"><path d="M0 3 C0 2.17 0.28 1.45 0.85 0.87 C1.41 0.29 2.12 0 2.95 0 C3.78 0 4.49 0.29 5.05 0.88 C5.62 1.46 5.9 2.17 5.9 3 C5.9 3.83 5.62 4.55 5.06 5.13 C4.5 5.71 3.79 6 2.95 6 C2.12 6 1.41 5.71 0.85 5.13 C0.28 4.55 0 3.83 0 3M0.98 1 C0.45 1.55 0.19 2.21 0.19 3 C0.19 3.79 0.45 4.45 0.98 5 C1.51 5.54 2.16 5.81 2.95 5.81 C3.74 5.81 4.39 5.54 4.93 5 C5.45 4.45 5.72 3.79 5.72 3 C5.72 2.21 5.45 1.55 4.92 1 C4.39 0.46 3.74 0.19 2.95 0.19 C2.16 0.19 1.51 0.46 0.98 1M0.73 3 C0.73 2.33 0.95 1.77 1.37 1.34 C1.8 0.9 2.33 0.68 2.95 0.68 C3.57 0.68 4.1 0.9 4.53 1.34 C4.96 1.77 5.18 2.33 5.17 3 C5.18 3.67 4.96 4.23 4.53 4.66 C4.1 5.1 3.57 5.32 2.95 5.31 C2.33 5.32 1.8 5.09 1.37 4.66 C0.95 4.23 0.73 3.67 0.73 3M1.51 1.47 C1.11 1.87 0.92 2.37 0.92 3 C0.92 3.63 1.11 4.13 1.51 4.53 C1.9 4.93 2.38 5.13 2.95 5.13 C3.53 5.13 4 4.93 4.4 4.53 C4.79 4.13 4.99 3.63 4.99 3 C4.99 2.37 4.79 1.87 4.4 1.47 C4 1.07 3.53 0.87 2.95 0.87 C2.38 0.87 1.9 1.07 1.51 1.47" fill="white" stroke="white" stroke-opacity="1" stroke-width="0"/></svg>