<?xml version="1.0" encoding="utf-8" standalone="no"?>

<svg height="12.00px" version="1.1" width="9.00px" xmlns="http://www.w3.org/2000/svg"><path d="M1.76 8.5 C1.89 9.64 3 10.39 4.52 10.39 C5.97 10.39 7.01 9.64 7.01 8.61 C7.01 7.72 6.38 7.18 4.89 6.82 L3.4 6.46 C1.29 5.94 0.3 4.96 0.3 3.35 C0.3 1.36 2.03 0 4.49 0 C6.93 0 8.59 1.36 8.65 3.35 L6.91 3.35 C6.81 2.2 5.86 1.51 4.47 1.51 C3.08 1.51 2.13 2.21 2.13 3.23 C2.13 4.05 2.74 4.53 4.22 4.89 L5.49 5.2 C7.85 5.76 8.83 6.71 8.83 8.4 C8.83 10.55 7.12 11.9 4.39 11.9 C1.84 11.9 0.11 10.58 0 8.5 L1.76 8.5" fill="white" stroke="white" stroke-opacity="1" stroke-width="0"/></svg>