<?xml version="1.0" encoding="utf-8" standalone="no"?>

<svg height="6.00px" version="1.1" width="6.00px" xmlns="http://www.w3.org/2000/svg"><path d="M5.63 3.13 C5.63 3.91 5.4 4.53 4.93 4.99 C4.41 5.54 3.73 5.81 2.89 5.81 C2.09 5.81 1.4 5.53 0.84 4.98 C0.28 4.42 0 3.73 0 2.91 C0 2.08 0.28 1.39 0.84 0.84 C1.4 0.28 2.09 0 2.89 0 C3.29 0 3.67 0.08 4.03 0.23 C4.39 0.39 4.69 0.6 4.9 0.85 L4.41 1.34 C4.05 0.9 3.54 0.68 2.89 0.68 C2.3 0.68 1.8 0.89 1.37 1.3 C0.94 1.71 0.73 2.25 0.73 2.91 C0.73 3.56 0.94 4.1 1.37 4.51 C1.8 4.92 2.3 5.13 2.89 5.13 C3.51 5.13 4.03 4.92 4.44 4.51 C4.71 4.24 4.87 3.86 4.91 3.38 L2.89 3.38 L2.89 2.71 L5.59 2.71 C5.61 2.86 5.63 3 5.63 3.13" fill="white" stroke="white" stroke-opacity="1" stroke-width="0"/></svg>