<?xml version="1.0" encoding="utf-8" standalone="no"?>

<svg height="9.00px" version="1.1" width="8.00px" xmlns="http://www.w3.org/2000/svg"><path d="M1.75 3.53 L5.94 3.53 C5.9 2.24 5.08 1.4 3.89 1.4 C2.7 1.4 1.84 2.26 1.75 3.53M7.57 6.03 C7.34 7.56 5.86 8.6 3.96 8.6 C1.52 8.6 0 6.97 0 4.34 C0 1.71 1.52 0 3.89 0 C6.21 0 7.67 1.6 7.67 4.14 L7.67 4.73 L1.74 4.73 L1.74 4.84 C1.74 6.27 2.64 7.21 4 7.21 C4.96 7.21 5.71 6.76 5.94 6.03 L7.57 6.03" fill="white" stroke="white" stroke-opacity="1" stroke-width="0"/></svg>