<?xml version="1.0" encoding="utf-8" standalone="no"?>

<svg height="12.00px" version="1.1" width="8.00px" xmlns="http://www.w3.org/2000/svg"><path d="M6.14 4.29 C6.14 2.59 5.26 1.47 3.92 1.47 C2.6 1.47 1.72 2.61 1.72 4.29 C1.72 5.98 2.6 7.11 3.92 7.11 C5.26 7.11 6.14 6 6.14 4.29M7.91 4.29 C7.91 6.89 6.51 8.57 4.4 8.57 C3.21 8.57 2.26 8.04 1.76 7.1 L1.72 7.1 L1.72 11.26 L0 11.26 L0 0.09 L1.67 0.09 L1.67 1.48 L1.7 1.48 C2.18 0.58 3.2 0 4.37 0 C6.5 0 7.91 1.68 7.91 4.29" fill="white" stroke="white" stroke-opacity="1" stroke-width="0"/></svg>