<?xml version="1.0" encoding="utf-8" standalone="no"?>

<svg height="5.00px" version="1.1" width="4.00px" xmlns="http://www.w3.org/2000/svg"><path d="M0.84 1.78 L2.95 1.78 C2.93 1.13 2.53 0.7 1.92 0.7 C1.31 0.7 0.89 1.13 0.84 1.78M3.74 3.13 C3.55 3.88 2.88 4.34 1.93 4.34 C0.73 4.34 0 3.52 0 2.18 C0 0.85 0.75 0 1.93 0 C3.09 0 3.79 0.79 3.79 2.1 L3.79 2.39 L0.84 2.39 L0.84 2.44 C0.87 3.17 1.29 3.63 1.95 3.63 C2.45 3.63 2.79 3.45 2.95 3.13 L3.74 3.13" fill="white" stroke="white" stroke-opacity="1" stroke-width="0"/></svg>